<?xml version="1.0" standalone="no"?>
<!DOCTYPE svg PUBLIC "-//W3C//DTD SVG 20010904//EN"
 "http://www.w3.org/TR/2001/REC-SVG-20010904/DTD/svg10.dtd">
<svg version="1.0" xmlns="http://www.w3.org/2000/svg"
 width="260.000000pt" height="44.000000pt" viewBox="0 0 260.000000 44.000000"
 preserveAspectRatio="xMidYMid meet">

<g transform="translate(0.000000,44.000000) scale(0.100000,-0.100000)"
fill="#000000" stroke="none">
<path d="M30 221 l0 -201 84 0 c93 0 135 11 185 48 74 55 92 179 38 261 -41
62 -93 84 -209 89 l-98 4 0 -201z m207 99 c42 -25 61 -84 45 -138 -17 -57 -43
-75 -112 -80 l-60 -4 0 121 0 121 48 0 c29 0 59 -7 79 -20z"/>
<path d="M430 220 l0 -200 40 0 40 0 0 65 0 65 33 0 c29 -1 36 -8 72 -65 39
-64 41 -65 82 -65 l43 0 -45 71 -46 70 31 35 c26 30 30 43 30 91 0 50 -3 59
-34 88 -40 37 -70 45 -172 45 l-74 0 0 -200z m181 110 c24 -13 26 -72 3 -90
-8 -8 -34 -14 -57 -14 l-42 -1 -3 58 -3 57 41 0 c23 0 50 -5 61 -10z"/>
<path d="M947 413 c-3 -4 -30 -64 -60 -133 -30 -69 -69 -155 -86 -192 l-30
-68 43 0 c39 0 44 3 59 35 l17 35 95 0 96 0 15 -35 c13 -32 17 -35 58 -35 l44
0 -88 198 -88 197 -35 3 c-19 2 -37 -1 -40 -5z m75 -180 c15 -37 28 -69 28
-70 0 -2 -29 -3 -65 -3 -36 0 -65 2 -65 4 0 2 9 26 21 53 11 26 25 59 30 72
12 30 16 26 51 -56z"/>
<path d="M1483 393 c-13 -2 -32 -16 -43 -30 -43 -55 -17 -102 79 -144 76 -34
91 -50 91 -95 0 -43 -38 -74 -92 -74 -32 0 -47 7 -74 34 -38 38 -46 31 -11 -9
38 -44 126 -46 167 -5 26 26 27 91 3 112 -10 9 -48 30 -84 47 -75 35 -98 66
-83 109 14 39 74 58 119 37 18 -9 37 -26 44 -38 9 -18 11 -19 8 -3 -4 37 -73
70 -124 59z"/>
<path d="M2125 394 c-5 -1 -22 -5 -37 -8 -34 -8 -84 -50 -105 -89 -41 -80 -2
-197 80 -236 52 -25 85 -26 134 -6 48 20 71 41 94 87 51 100 -10 222 -124 248
-18 3 -36 6 -42 4z m85 -29 c68 -35 105 -125 81 -198 -17 -50 -79 -103 -130
-112 -54 -9 -126 25 -159 75 -20 29 -23 45 -20 95 4 69 24 102 78 134 42 24
109 27 150 6z"/>
<path d="M1670 220 c0 -107 4 -170 10 -170 6 0 10 33 10 80 l0 81 103 -3 102
-3 6 -85 c3 -56 5 -24 5 95 0 99 -2 141 -3 93 l-4 -88 -104 0 -105 0 0 85 c0
50 -4 85 -10 85 -6 0 -10 -63 -10 -170z"/>
<path d="M2372 214 c1 -99 4 -147 5 -108 l4 72 74 4 c66 3 78 7 102 31 40 39
40 105 0 144 -24 25 -36 28 -107 31 l-80 4 2 -178z m157 151 c40 -20 56 -64
41 -110 -15 -46 -53 -65 -130 -65 l-60 0 0 95 0 95 60 0 c34 0 74 -7 89 -15z"/>
</g>
</svg>
